<?xml version="1.0" encoding="UTF-8"?>
<svg id="Layer_1" data-name="Layer 1" xmlns="http://www.w3.org/2000/svg" viewBox="0 0 250 66.21">
  <defs>
    <style>
      .cls-1 {
        fill: #3e4144;
      }

      .cls-2 {
        fill: #3f4144;
      }
    </style>
  </defs>
  <path class="cls-1" d="M86.93,24.99c-2.75.11-6.54.14-8.94.07-12.57-.35-25.58-.79-38.13.57-7.52.81-14.89,2.67-21.77,5.74C10.27,11.42,33.12,6.44,47.68,3.75,62.34,1.04,110.04-.49,110.63.14c0,0-8.98,2.94-13.35,7.38-8.73,8.88-10.35,17.47-10.35,17.47ZM57.25,13.48c-12.53-8.94-32.56-2.86-35.11,13.16,5.1-4.24,11.32-7.04,17.89-8.1l-2.69-4.22c.01-.71,6.36-1.99,7.42-1.85l-.67,3.37c4.22-1.41,8.71-2.28,13.16-2.37Z"/>
  <path class="cls-1" d="M47.07,50.53c-.33-2.63-2.11-6.85-3.53-9.25l-5.96-7.67,10.04-.97c8.32,5.31,13.78,13.75,16.34,22.23.68-.37.5-.9.58-1.44,1.17-7.56-.37-14.73-5.69-20.96l.94-.48,10.06-.32-.96-2.26.44-.6,16.83-.77c-5.44,11.51-17.78,34.65,3.77,38.16-3.98-.09-23.31-.16-28.21-.07-12.04.23-21.51-.62-30.85-3.73-9.82-3.27-14.19-14.81-17.97-22.84L0,38.28c7.53-3.91,17.32-5.21,25.52-2,7.16,2.8,12.92,8.55,17.47,13.85l4.09,6.04c-.16-1.81.22-3.86,0-5.64Z"/>
  <g>
    <path id="G" class="cls-1" d="M147.22,13.93l-30.83.11c-8.59,1.03-10.91,6.79-13.97,13.74-1.5,3.42-7.93,18.24-7.87,20.9.07,3.09,2.63,4.84,5.47,5.16,2.79.31,13.52.32,15.83-.5,3.61-1.28,6.32-7.37,7.34-10.88.15-.51.25-.99.18-1.53h-12.91l4.93-12.52h27.71c-1.87,5.08-3.78,10.18-5.9,15.16-4.15,9.78-6.98,17.89-18.4,21.07-7.24,2.02-25.01,2.33-31.77-.88-15.12-7.19-2.59-25.13.82-35.74l13.86-2.08-12.52-.57c2.93-11.1,10.27-20.42,21.55-23.79,1.03-.31,4.39-1.24,5.21-1.24h47.03s-6.83,3.24-10.21,6.62c-3.32,3.32-5.56,6.98-5.56,6.98Z"/>
    <path id="P" class="cls-1" d="M187.34,66.18h-14.8l15.42-37.46h14.99l-.76,1.89c.7-.08,1.4.16,2.09.17,5.73.1,14.23.38,19.73-.17,3.1-.31,5.9-2.04,7.57-4.58,1.54-2.35,4.15-7.94,2.13-10.42-.33-.4-2.89-1.7-3.24-1.7h-29.8l5.57-13.67c9.59.6,20.05-.75,29.54.02,6.89.56,13.76,4.4,14.21,12,.31,5.21-4.45,16.17-7.47,20.52-10.89,15.67-30.29,11.52-46.79,12.42l-8.38,20.97Z"/>
    <path id="S" class="cls-1" d="M204.45.02l-5.51,13.76-28.96.08c-4.55-.19-12.93,6.53-8.79,10.98,3.89,4.18,17.22.66,20.24,10.12,2.1,6.58-5.4,18.19-8.47,26.29-2.08,5.48-6.16,4.92-14.05,4.95h-38.81c9.86-4.08,11.27-7.12,12.99-9.32,1.37-1.76,5.95-10.95,5.95-10.95,4.93,12.82,20.14,9.48,23.95,4.41,7.18-9.57-6.82-10.57-11.84-12.81-13.42-5.98-2.6-26.32,5.72-32.21,2.86-2.02,10.03-5.16,13.6-5.3h33.97Z"/>
  </g>
  <path class="cls-2" d="M199.52,47.13h18.4c4.2,0,7.4,3.5,6.73,6.34-.47,2-3.46,4.53-6.44,4.53h-2.81c-.21.15,0,2.09.25,2.29,1.94,1.59,6.33,1.49,9.13,1.55v4.34c-5.26.04-12.04.54-15.1-2.66-2.31-2.41-1.31-6.96-1.09-9.85h8.83c.17,0,.79-.29.92-.4.55-.48.38-1.24-.33-1.59-.16-.08-.64-.21-.79-.21h-11.59v14.71h-5.97"/>
  <polygon class="cls-2" points="198.45 47.11 196.78 47.12 190 66.19 198.45 66.19 198.45 47.11"/>
</svg>