<?xml version="1.0" encoding="UTF-8"?>
<svg id="Layer_1" data-name="Layer 1" xmlns="http://www.w3.org/2000/svg" viewBox="0 0 125.74 75.25">
  <defs>
    <style>
      .cls-1 {
        fill: #fff;
      }
    </style>
  </defs>
  <path class="cls-1" d="M98.8,28.4c-3.12.12-7.43.16-10.17.08-14.28-.4-29.07-.89-43.34.65-8.54.93-16.92,3.03-24.75,6.52C11.67,12.98,37.64,7.32,54.19,4.26,70.85,1.18,125.06-.56,125.74.16c0,0-10.21,3.34-15.17,8.38-9.93,10.09-11.77,19.85-11.77,19.85ZM65.06,15.32c-14.24-10.16-37-3.25-39.9,14.96,5.8-4.82,12.86-8,20.33-9.21l-3.06-4.79c.01-.81,7.23-2.26,8.43-2.11l-.76,3.83c4.8-1.6,9.9-2.59,14.96-2.69Z"/>
  <path class="cls-1" d="M53.5,57.43c-.37-2.99-2.4-7.78-4.01-10.52l-6.78-8.71,11.41-1.1c9.45,6.04,15.66,15.63,18.57,25.27.77-.42.56-1.02.66-1.64,1.33-8.6-.42-16.74-6.47-23.82l1.07-.55,11.44-.37-1.09-2.57.5-.68,19.13-.88c-6.18,13.09-20.21,39.38,4.28,43.37-4.52-.11-26.49-.18-32.06-.07-13.69.26-24.45-.71-35.06-4.24-11.16-3.71-16.12-16.83-20.42-25.96l-14.67-1.47c8.56-4.44,19.68-5.92,29-2.27,8.14,3.18,14.69,9.72,19.85,15.74l4.65,6.86c-.18-2.06.25-4.38,0-6.41Z"/>
</svg>